<svg width="50" height="45" viewBox="0 0 50 45" fill="none" xmlns="http://www.w3.org/2000/svg">
<path d="M37.5 12.6107C37.5 11.6232 36.7 10.825 35.7143 10.825H30.3571C30.3571 10.825 30.4161 8.675 30.4161 5.55C30.4161 2.64821 28.0125 0 25 0C21.9875 0 19.6643 2.51964 19.6643 5.53393C19.6643 8.43571 19.6429 10.8268 19.6429 10.8268H14.2857C13.2982 10.8268 12.5 11.625 12.5 12.6125C12.5 13.5982 12.5 16.0732 12.5 16.0732H37.5C37.5 16.0714 37.5 13.5964 37.5 12.6107ZM25 8.92857C24.0125 8.92857 23.2143 8.12857 23.2143 7.14286C23.2143 6.15536 24.0125 5.35714 25 5.35714C25.9857 5.35714 26.7857 6.15536 26.7857 7.14286C26.7857 8.13036 25.9857 8.92857 25 8.92857ZM46.4286 12.6107L39.2857 12.5L39.3232 18.0429H10.7143V12.7232L3.57143 12.6125C1.6 12.6125 0 14.2125 0 16.1839V41.1839C0 43.1554 1.6 44.7554 3.57143 44.7554H46.4286C48.4 44.7554 50 43.1554 50 41.1839V16.1839C50 14.2107 48.4 12.6107 46.4286 12.6107ZM14.2857 22.9911C16.4429 22.9911 18.1929 25.2893 18.1929 28.125C18.1929 30.9607 16.4429 33.2589 14.2857 33.2589C12.1286 33.2589 10.3786 30.9607 10.3786 28.125C10.3786 25.2893 12.1286 22.9911 14.2857 22.9911ZM6.54821 39.3036C6.54821 39.3036 6.97143 35.9071 7.93393 35.2661C8.89643 34.625 11.6661 34.1982 11.6661 34.1982C11.6661 34.1982 13.4625 36.1179 14.2268 36.1179C14.9893 36.1179 16.7857 34.1982 16.7857 34.1982C16.7857 34.1982 19.5571 34.6232 20.5196 35.2661C21.65 36.0196 21.9321 39.3036 21.9321 39.3036H6.54821ZM42.8571 37.6107H26.7857V35.825H42.8571V37.6107ZM42.8571 34.0393H26.7857V32.2536H42.8571V34.0393ZM42.8571 30.4679H26.7857V28.6821H42.8571V30.4679ZM42.8571 26.8964H26.7857V25.1107H42.8571V26.8964Z" fill="white"/>
</svg>
