<svg width="1113" height="1113" viewBox="0 0 1113 1113" fill="none" xmlns="http://www.w3.org/2000/svg">
<circle cx="556.5" cy="556.5" r="551.5" fill="white" stroke="#0253CC" stroke-width="10"/>
<g filter="url(#filter0_d_11_13)">
<path d="M849.244 256.137L508.744 684.137L355.744 525.637C325.744 490.137 265.744 525.637 295.744 573.637L438.744 778.638C488.244 852.637 550.744 837.137 589.744 773.638C715.421 588.223 784.225 484.332 904.244 299.137C935.244 256.137 876.744 215.137 849.244 256.137Z" fill="#07C907"/>
<path d="M849.244 256.137L508.744 684.137L355.744 525.637C325.744 490.137 265.744 525.637 295.744 573.637L438.744 778.638C488.244 852.637 550.744 837.137 589.744 773.638C715.421 588.223 784.225 484.332 904.244 299.137C935.244 256.137 876.744 215.137 849.244 256.137Z" stroke="#07C907" stroke-width="10"/>
</g>
<path d="M421.744 810.637L324.244 676.137L284.244 801.637C248.744 892.637 374.744 929.637 407.744 855.137L421.744 810.637Z" fill="#0253CC"/>
<path d="M732.244 623.637L635.744 766.637L667.244 857.137C709.244 936.637 825.244 882.137 792.244 806.637L732.244 623.637Z" fill="#0253CC"/>
<path fill-rule="evenodd" clip-rule="evenodd" d="M605.455 240.771C594.945 269.497 567.367 290 535 290C502.167 290 474.261 268.902 464.101 239.524L380.244 501.637L486.744 609.637L535.244 459.137L568.244 560.637L669.744 433.637L605.455 240.771Z" fill="#0253CC"/>
<path d="M535 273C568.137 273 595 246.137 595 213C595 179.863 568.137 153 535 153C501.863 153 475 179.863 475 213C475 246.137 501.863 273 535 273Z" stroke="#0253CC" stroke-width="10"/>
<path d="M555.151 403.255L545.567 354.168C545.319 352.898 544.078 352.069 542.792 352.314C541.508 352.559 540.667 353.785 540.915 355.054L550.281 403.022L533.48 422.096L526.512 414.186C525.654 413.211 524.157 413.109 523.17 413.956C522.182 414.804 522.078 416.282 522.937 417.256L531.693 427.196C532.143 427.707 532.795 428 533.48 428C534.165 428 534.817 427.707 535.267 427.196L554.613 405.233C555.091 404.69 555.29 403.961 555.151 403.255Z" fill="white"/>
<path d="M569.101 286.537C568.305 285.886 567.175 285.821 566.307 286.374L533.48 307.273L500.652 286.374C499.785 285.821 498.655 285.887 497.858 286.537C497.063 287.187 496.786 288.271 497.172 289.216L512.732 327.207C513.02 327.912 513.638 328.434 514.386 328.608C514.566 328.649 514.747 328.67 514.927 328.67C515.5 328.67 516.062 328.463 516.499 328.079L520.788 324.317L524.34 339.058L511.808 403.255C511.671 403.961 511.869 404.69 512.347 405.233L517.877 411.512C518.346 412.044 519.005 412.316 519.666 412.316C520.217 412.316 520.771 412.127 521.219 411.742C522.207 410.893 522.311 409.417 521.453 408.441L516.678 403.022L528.717 341.349H538.24L539.401 347.298C539.619 348.418 540.611 349.195 541.724 349.195C541.873 349.195 542.024 349.181 542.175 349.153C543.459 348.908 544.3 347.682 544.052 346.413L542.618 339.063L546.17 324.317L550.459 328.08C550.898 328.465 551.459 328.67 552.032 328.67C552.212 328.67 552.394 328.65 552.573 328.609C553.322 328.435 553.939 327.913 554.228 327.208L569.787 289.217C570.174 288.271 569.897 287.187 569.101 286.537ZM515.865 322.38L504.367 294.305L529.576 310.353L515.865 322.38ZM538.325 336.671H528.635L524.809 320.791L533.48 313.184L542.15 320.79L538.325 336.671ZM551.095 322.38L537.384 310.353L562.593 294.305L551.095 322.38Z" fill="white"/>
<defs>
<filter id="filter0_d_11_13" x="278.567" y="234.204" width="643.502" height="606.782" filterUnits="userSpaceOnUse" color-interpolation-filters="sRGB">
<feFlood flood-opacity="0" result="BackgroundImageFix"/>
<feColorMatrix in="SourceAlpha" type="matrix" values="0 0 0 0 0 0 0 0 0 0 0 0 0 0 0 0 0 0 127 0" result="hardAlpha"/>
<feOffset dy="4"/>
<feGaussianBlur stdDeviation="2"/>
<feComposite in2="hardAlpha" operator="out"/>
<feColorMatrix type="matrix" values="0 0 0 0 0 0 0 0 0 0 0 0 0 0 0 0 0 0 0.25 0"/>
<feBlend mode="normal" in2="BackgroundImageFix" result="effect1_dropShadow_11_13"/>
<feBlend mode="normal" in="SourceGraphic" in2="effect1_dropShadow_11_13" result="shape"/>
</filter>
</defs>
</svg>
