<svg width="853" height="829" viewBox="0 0 853 829" fill="none" xmlns="http://www.w3.org/2000/svg">
<rect width="829" height="829" rx="60" fill="white"/>
<g filter="url(#filter0_d_16_4)">
<path d="M702.243 155.949L347.627 583.433L188.284 425.124C157.04 389.667 94.5525 425.124 125.796 473.066L274.725 677.82C326.277 751.73 391.368 736.249 431.985 672.826C562.872 487.635 634.528 383.869 759.523 198.897C791.808 155.949 730.883 114.998 702.243 155.949Z" fill="#07C907"/>
<path d="M702.243 155.949L347.627 583.433L188.284 425.124C157.04 389.667 94.5525 425.124 125.796 473.066L274.725 677.82C326.277 751.73 391.368 736.249 431.985 672.826C562.872 487.635 634.528 383.869 759.523 198.897C791.808 155.949 730.883 114.998 702.243 155.949Z" stroke="#07C907" stroke-width="10"/>
</g>
<path d="M257.02 709.781L155.478 575.443L113.819 700.792C76.8478 791.682 208.071 828.637 242.439 754.227L257.02 709.781Z" fill="#0253CC"/>
<path d="M580.393 523.006L479.892 665.834L512.698 756.225C556.439 835.629 677.248 781.195 642.88 705.786L580.393 523.006Z" fill="#0253CC"/>
<path fill-rule="evenodd" clip-rule="evenodd" d="M448.347 140.601C437.401 169.293 408.68 189.771 374.971 189.771C340.777 189.771 311.714 168.699 301.133 139.356L213.8 401.153L324.715 509.023L375.225 358.704L409.594 460.082L515.301 333.235L448.347 140.601Z" fill="#0253CC"/>
<path d="M374.971 172.792C409.482 172.792 437.459 145.961 437.459 112.864C437.459 79.7667 409.482 52.9362 374.971 52.9362C340.46 52.9362 312.484 79.7667 312.484 112.864C312.484 145.961 340.46 172.792 374.971 172.792Z" stroke="#0253CC" stroke-width="10"/>
<path d="M395.958 302.89L385.976 253.862C385.718 252.594 384.425 251.766 383.086 252.01C381.749 252.254 380.873 253.48 381.131 254.746L390.886 302.657L373.388 321.708L366.131 313.807C365.237 312.834 363.678 312.731 362.651 313.578C361.622 314.425 361.514 315.901 362.408 316.874L371.527 326.802C371.996 327.313 372.674 327.605 373.388 327.605C374.102 327.605 374.78 327.313 375.249 326.802L395.397 304.865C395.894 304.323 396.102 303.594 395.958 302.89Z" fill="white"/>
<path d="M410.486 186.313C409.657 185.662 408.48 185.597 407.576 186.149L373.388 207.023L339.2 186.149C338.296 185.597 337.119 185.664 336.29 186.313C335.461 186.962 335.173 188.044 335.575 188.988L351.78 226.934C352.08 227.637 352.723 228.159 353.503 228.332C353.69 228.374 353.879 228.394 354.066 228.394C354.663 228.394 355.248 228.188 355.703 227.804L360.17 224.047L363.869 238.77L350.818 302.89C350.675 303.594 350.881 304.323 351.379 304.865L357.139 311.136C357.627 311.668 358.313 311.939 359.002 311.939C359.575 311.939 360.152 311.751 360.619 311.367C361.648 310.519 361.756 309.044 360.862 308.07L355.89 302.657L368.427 241.059H378.345L379.555 247C379.782 248.118 380.815 248.895 381.974 248.895C382.129 248.895 382.286 248.881 382.444 248.853C383.781 248.608 384.657 247.383 384.399 246.116L382.905 238.775L386.604 224.047L391.071 227.805C391.529 228.189 392.113 228.394 392.709 228.394C392.897 228.394 393.086 228.375 393.273 228.333C394.053 228.16 394.695 227.638 394.996 226.935L411.2 188.989C411.604 188.044 411.314 186.962 410.486 186.313ZM355.043 222.112L343.068 194.071L369.322 210.1L355.043 222.112ZM378.434 236.386H368.342L364.357 220.525L373.388 212.927L382.417 220.524L378.434 236.386ZM391.734 222.112L377.454 210.1L403.708 194.071L391.734 222.112Z" fill="white"/>
<defs>
<filter id="filter0_d_16_4" x="108.28" y="134.036" width="669.434" height="606.073" filterUnits="userSpaceOnUse" color-interpolation-filters="sRGB">
<feFlood flood-opacity="0" result="BackgroundImageFix"/>
<feColorMatrix in="SourceAlpha" type="matrix" values="0 0 0 0 0 0 0 0 0 0 0 0 0 0 0 0 0 0 127 0" result="hardAlpha"/>
<feOffset dy="4"/>
<feGaussianBlur stdDeviation="2"/>
<feComposite in2="hardAlpha" operator="out"/>
<feColorMatrix type="matrix" values="0 0 0 0 0 0 0 0 0 0 0 0 0 0 0 0 0 0 0.25 0"/>
<feBlend mode="normal" in2="BackgroundImageFix" result="effect1_dropShadow_16_4"/>
<feBlend mode="normal" in="SourceGraphic" in2="effect1_dropShadow_16_4" result="shape"/>
</filter>
</defs>
</svg>
