<svg width="796" height="830" viewBox="0 0 796 830" fill="none" xmlns="http://www.w3.org/2000/svg">
<g filter="url(#filter0_d_17_5)">
<path d="M651.244 156.137L310.744 584.137L157.744 425.637C127.744 390.137 67.744 425.637 97.744 473.637L240.744 678.638C290.244 752.637 352.744 737.137 391.744 673.638C517.421 488.223 586.225 384.332 706.244 199.137C737.244 156.137 678.744 115.137 651.244 156.137Z" fill="#07C907"/>
<path d="M651.244 156.137L310.744 584.137L157.744 425.637C127.744 390.137 67.744 425.637 97.744 473.637L240.744 678.638C290.244 752.637 352.744 737.137 391.744 673.638C517.421 488.223 586.225 384.332 706.244 199.137C737.244 156.137 678.744 115.137 651.244 156.137Z" stroke="#07C907" stroke-width="10"/>
</g>
<path d="M223.744 710.637L126.244 576.137L86.2439 701.637C50.744 792.637 176.744 829.637 209.744 755.137L223.744 710.637Z" fill="#0253CC"/>
<path d="M534.244 523.637L437.744 666.637L469.244 757.137C511.244 836.637 627.244 782.137 594.244 706.637L534.244 523.637Z" fill="#0253CC"/>
<path fill-rule="evenodd" clip-rule="evenodd" d="M407.455 140.771C396.945 169.497 369.367 190 337 190C304.167 190 276.261 168.902 266.101 139.524L182.244 401.637L288.744 509.637L337.244 359.137L370.244 460.637L471.744 333.637L407.455 140.771Z" fill="#0253CC"/>
<path d="M337 173C370.137 173 397 146.137 397 113C397 79.8629 370.137 53 337 53C303.863 53 277 79.8629 277 113C277 146.137 303.863 173 337 173Z" stroke="#0253CC" stroke-width="10"/>
<path d="M357.152 303.255L347.567 254.168C347.319 252.898 346.078 252.069 344.792 252.314C343.508 252.559 342.668 253.785 342.915 255.054L352.281 303.022L335.48 322.096L328.512 314.186C327.654 313.211 326.157 313.109 325.17 313.956C324.183 314.804 324.079 316.282 324.937 317.256L333.693 327.196C334.144 327.707 334.795 328 335.48 328C336.166 328 336.817 327.707 337.267 327.196L356.613 305.233C357.091 304.69 357.29 303.961 357.152 303.255Z" fill="white"/>
<path d="M371.101 186.537C370.305 185.886 369.175 185.821 368.307 186.374L335.48 207.273L302.652 186.374C301.785 185.821 300.655 185.887 299.858 186.537C299.063 187.187 298.786 188.271 299.172 189.216L314.732 227.207C315.02 227.912 315.638 228.434 316.386 228.608C316.566 228.649 316.747 228.67 316.927 228.67C317.5 228.67 318.062 228.463 318.499 228.079L322.788 224.317L326.34 239.058L313.808 303.255C313.671 303.961 313.869 304.69 314.347 305.233L319.877 311.512C320.346 312.044 321.005 312.316 321.666 312.316C322.217 312.316 322.771 312.127 323.219 311.742C324.207 310.893 324.311 309.417 323.453 308.441L318.678 303.022L330.717 241.349H340.24L341.401 247.298C341.619 248.418 342.611 249.195 343.724 249.195C343.873 249.195 344.024 249.181 344.175 249.153C345.459 248.908 346.3 247.682 346.052 246.413L344.618 239.063L348.17 224.317L352.459 228.08C352.898 228.465 353.459 228.67 354.032 228.67C354.212 228.67 354.394 228.65 354.573 228.609C355.322 228.435 355.939 227.913 356.228 227.208L371.787 189.217C372.174 188.271 371.897 187.187 371.101 186.537ZM317.865 222.38L306.367 194.305L331.576 210.353L317.865 222.38ZM340.325 236.671H330.635L326.809 220.791L335.48 213.184L344.15 220.79L340.325 236.671ZM353.095 222.38L339.384 210.353L364.593 194.305L353.095 222.38Z" fill="white"/>
<defs>
<filter id="filter0_d_17_5" x="80.567" y="134.204" width="643.502" height="606.782" filterUnits="userSpaceOnUse" color-interpolation-filters="sRGB">
<feFlood flood-opacity="0" result="BackgroundImageFix"/>
<feColorMatrix in="SourceAlpha" type="matrix" values="0 0 0 0 0 0 0 0 0 0 0 0 0 0 0 0 0 0 127 0" result="hardAlpha"/>
<feOffset dy="4"/>
<feGaussianBlur stdDeviation="2"/>
<feComposite in2="hardAlpha" operator="out"/>
<feColorMatrix type="matrix" values="0 0 0 0 0 0 0 0 0 0 0 0 0 0 0 0 0 0 0.25 0"/>
<feBlend mode="normal" in2="BackgroundImageFix" result="effect1_dropShadow_17_5"/>
<feBlend mode="normal" in="SourceGraphic" in2="effect1_dropShadow_17_5" result="shape"/>
</filter>
</defs>
</svg>
