<svg xmlns="http://www.w3.org/2000/svg" version="1.1" xmlns:xlink="http://www.w3.org/1999/xlink" xmlns:svgjs="http://svgjs.com/svgjs" width="1440" height="560" preserveAspectRatio="none" viewBox="0 0 1440 560"><g mask="url(&quot;#SvgjsMask2493&quot;)" fill="none"><rect width="1440" height="560" x="0" y="0" fill="url(#SvgjsLinearGradient2494)"></rect><path d="M -213.06697596624207,103 C -69.07,181.8 218.93,480.8 506.93302403375793,497 C 794.93,513.2 938.93,189.2 1226.9330240337579,184 C 1514.93,178.8 1904.32,473.6 1946.9330240337579,471 C 1989.55,468.4 1541.39,231 1440,171" stroke="rgba(83, 195, 226, 1)" stroke-width="2"></path><path d="M -435.3119008219176,502 C -291.31,439.4 -3.31,232 284.6880991780824,189 C 572.69,146 716.69,289.4 1004.6880991780824,287 C 1292.69,284.6 1637.63,147.6 1724.6880991780824,177 C 1811.75,206.4 1496.94,382.6 1440,434" stroke="rgba(83, 195, 226, 1)" stroke-width="2"></path><path d="M -293.41900700199983,74 C -149.42,116.4 138.58,259.2 426.58099299800017,286 C 714.58,312.8 858.58,199.4 1146.580992998,208 C 1434.58,216.6 1807.9,346.8 1866.580992998,329 C 1925.26,311.2 1525.32,161 1440,119" stroke="rgba(83, 195, 226, 1)" stroke-width="2"></path><path d="M -1269.740249870685,332 C -1125.74,302.2 -837.74,184 -549.7402498706849,183 C -261.74,182 -117.74,339.6 170.25975012931508,327 C 458.26,314.4 636.31,92.4 890.2597501293151,120 C 1144.21,147.6 1330.05,396 1440,465" stroke="rgba(83, 195, 226, 1)" stroke-width="2"></path><path d="M -773.6100161848195,183 C -629.61,222.2 -341.61,401.2 -53.610016184819536,379 C 234.39,356.8 378.39,73.6 666.3899838151805,72 C 954.39,70.4 1231.67,332.6 1386.3899838151804,371 C 1541.11,409.4 1429.28,285.4 1440,264" stroke="rgba(83, 195, 226, 1)" stroke-width="2"></path></g><defs><mask id="SvgjsMask2493"><rect width="1440" height="560" fill="#ffffff"></rect></mask><linearGradient x1="84.72%" y1="139.29%" x2="15.28%" y2="-39.29%" gradientUnits="userSpaceOnUse" id="SvgjsLinearGradient2494"><stop stop-color="rgba(0, 197, 251, 1)" offset="0.22"></stop><stop stop-color="rgba(2, 83, 204, 1)" offset="0.61"></stop></linearGradient></defs></svg>