<svg xmlns="http://www.w3.org/2000/svg" version="1.1" xmlns:xlink="http://www.w3.org/1999/xlink" xmlns:svgjs="http://svgjs.com/svgjs" width="1500" height="1500" preserveAspectRatio="none" viewBox="0 0 1500 1500"><g mask="url(&quot;#SvgjsMask1699&quot;)" fill="none"><rect width="1500" height="1500" x="0" y="0" fill="url(#SvgjsLinearGradient1700)"></rect><path d="M -798.0655821348598,256 C -698.07,457.4 -498.07,1278 -298.0655821348599,1263 C -98.07,1248 1.93,204.8 201.93441786514012,181 C 401.93,157.2 501.93,1126.6 701.9344178651402,1144 C 901.93,1161.4 1042.32,325.2 1201.9344178651402,268 C 1361.55,210.8 1440.39,740 1500,858" stroke="rgba(13, 201, 235, 1)" stroke-width="2"></path><path d="M -480.9950634844985,652 C -381,736.2 -181,1154 19.0049365155015,1073 C 219,992 319,255.8 519.0049365155015,247 C 719,238.2 819,989.2 1019.0049365155015,1029 C 1219,1068.8 1422.81,427 1519.0049365155014,446 C 1615.2,465 1503.8,988.4 1500,1124" stroke="rgba(13, 201, 235, 1)" stroke-width="2"></path><path d="M -893.8606075182277,549 C -793.86,676 -593.86,1249 -393.8606075182276,1184 C -193.86,1119 -93.86,310.6 106.1393924817724,224 C 306.14,137.4 406.14,755.2 606.1393924817723,751 C 806.14,746.8 927.37,118.8 1106.1393924817723,203 C 1284.91,287.2 1421.23,978.2 1500,1172" stroke="rgba(13, 201, 235, 1)" stroke-width="2"></path><path d="M -607.9787048825169,271 C -507.98,448.6 -307.98,1070.2 -107.97870488251692,1159 C 92.02,1247.8 192.02,784.2 392.0212951174831,715 C 592.02,645.8 692.02,915 892.0212951174831,813 C 1092.02,711 1270.43,120.2 1392.021295117483,205 C 1513.62,289.8 1478.4,1030.6 1500,1237" stroke="rgba(13, 201, 235, 1)" stroke-width="2"></path></g><defs><mask id="SvgjsMask1699"><rect width="1500" height="1500" fill="#ffffff"></rect></mask><linearGradient x1="50%" y1="100%" x2="50%" y2="0%" gradientUnits="userSpaceOnUse" id="SvgjsLinearGradient1700"><stop stop-color="rgba(0, 0, 0, 1)" offset="0"></stop><stop stop-color="rgba(12, 40, 55, 1)" offset="0.34"></stop><stop stop-color="rgba(24, 112, 226, 1)" offset="1"></stop></linearGradient></defs></svg>