<svg width="50" height="50" viewBox="0 0 50 50" fill="none" xmlns="http://www.w3.org/2000/svg">
<path d="M9.84719 21.4559C11.4725 21.0204 12.4371 19.3497 12.0016 17.7244C11.5661 16.099 9.89549 15.1344 8.27013 15.5699C6.64476 16.0054 5.68019 17.6761 6.11568 19.3014C6.55117 20.9268 8.22183 21.8914 9.84719 21.4559Z" fill="white"/>
<path d="M14.6093 38.086H10.8984C10.8984 38.086 10.703 38.086 10.5468 38.086C8.86711 37.9297 7.4218 36.7188 6.99211 35.0391L4.45305 25.586C4.2968 25.0391 3.74992 24.7657 3.28117 24.8829C2.7343 25.0391 2.46086 25.586 2.57805 26.0547L5.07805 35.5079C5.74211 37.9688 7.81242 39.7657 10.3515 39.961C10.5859 40 10.8593 40 10.8593 40H14.5702C15.1171 40 15.5077 39.5704 15.5468 39.0235C15.5468 38.4766 15.1562 38.086 14.6093 38.086Z" fill="white"/>
<path d="M18.9845 32.7735H13.9063C13.7891 30.8594 13.4766 28.9454 13.0079 27.0313C12.9688 26.8751 12.8516 26.4844 12.8516 26.4454C12.1876 23.9844 9.84383 22.4219 7.3829 22.6563C7.3829 22.6563 7.0704 22.6954 6.99227 22.6954C6.09383 22.9297 5.54696 23.8672 5.78133 24.8047L8.39852 34.5313C8.67196 35.6251 9.60946 36.4454 10.7813 36.5235H11.0157H17.0704V43.4766C17.0704 44.5313 17.8907 45.3907 18.9845 45.3907C20.0391 45.3907 20.8985 44.5704 20.8985 43.4766V34.6876C20.8985 34.1797 20.7032 33.711 20.3126 33.3594C19.961 32.9688 19.4532 32.7735 18.9845 32.7735Z" fill="white"/>
<path d="M43.7223 19.3257C44.1578 17.7003 43.1933 16.0297 41.5679 15.5942C39.9425 15.1587 38.2719 16.1233 37.8364 17.7486C37.4009 19.374 38.3655 21.0446 39.9908 21.4801C41.6162 21.9156 43.2868 20.951 43.7223 19.3257Z" fill="white"/>
<path d="M35.2344 38.0859H38.9453C38.9453 38.0859 39.1406 38.0859 39.2969 38.0859C40.9766 37.9297 42.4219 36.7187 42.8516 35.039L45.3906 25.5859C45.5469 25.039 46.0937 24.7656 46.5625 24.8828C47.1094 25.039 47.3828 25.5859 47.2656 26.0547L44.7656 35.5078C44.1016 37.9687 42.0312 39.7656 39.4922 39.9609C39.2578 40 38.9844 40 38.9844 40H35.2734C34.7266 40 34.3359 39.5703 34.2969 39.0234C34.2969 38.4765 34.7266 38.0859 35.2344 38.0859Z" fill="white"/>
<path d="M30.8594 32.7734H35.9375C36.0547 30.8594 36.3672 28.9453 36.8359 27.0312C36.875 26.875 36.9922 26.4844 36.9922 26.4453C37.6562 23.9844 40 22.4219 42.4609 22.6562C42.4609 22.6562 42.7734 22.6953 42.8516 22.6953C43.75 22.9297 44.2969 23.8672 44.0625 24.8047L41.4063 34.5312C41.1328 35.625 40.1953 36.4453 39.0234 36.5234H38.7891H32.7734V43.4766C32.7734 44.5312 31.9531 45.3906 30.8594 45.3906C29.7656 45.3906 28.9453 44.5703 28.9453 43.4766V34.6875C28.9453 34.1797 29.1406 33.7109 29.5312 33.3594C29.8828 32.9687 30.3906 32.7734 30.8594 32.7734Z" fill="white"/>
<path d="M34.9219 27.6562H15.1562V30H34.9219V27.6562Z" fill="white"/>
<path d="M25.0391 19.6875C26.5924 19.6875 27.8516 18.4283 27.8516 16.875C27.8516 15.3217 26.5924 14.0625 25.0391 14.0625C23.4858 14.0625 22.2266 15.3217 22.2266 16.875C22.2266 18.4283 23.4858 19.6875 25.0391 19.6875Z" fill="white"/>
<path d="M20.5078 26.5234V24.8437H20.4688C20.4688 24.6484 20.625 24.4922 20.8203 24.4922C21.0156 24.4922 21.1719 24.6484 21.1719 24.8437V26.5234H28.9453V24.8437H28.9062C28.9062 24.6484 29.0625 24.4922 29.2578 24.4922C29.4531 24.4922 29.6094 24.6484 29.6094 24.8437V26.5234H32.0312V24.1406C32.0312 22.1875 30.4688 20.625 28.5156 20.625H21.4844C19.5312 20.625 17.9688 22.1875 17.9688 24.1406V26.5234H20.5078Z" fill="white"/>
</svg>
