<svg width="50" height="54" viewBox="0 0 50 54" fill="none" xmlns="http://www.w3.org/2000/svg">
<path d="M33.6211 28.0883C33.6211 26.8057 32.6404 26.2021 30.7918 26.2021H28.9434V30.1631H30.7918C32.6025 30.163 33.6211 29.484 33.6211 28.0883Z" fill="white"/>
<path d="M18.8331 30.1818C20.7758 30.1818 22.0207 28.4088 22.0207 25.6362C22.0207 22.8823 20.7758 21.2036 18.8331 21.2036C16.8903 21.2036 15.6455 22.8823 15.6455 25.6362C15.6455 28.4088 16.8904 30.1818 18.8331 30.1818Z" fill="white"/>
<path d="M32.9609 22.8258C32.9609 21.694 32.15 21.2225 30.5466 21.2225H28.9434V24.6365H30.5089C32.2253 24.6365 32.9609 23.9764 32.9609 22.8258Z" fill="white"/>
<path d="M0 10.3167V50.5527C0 52.3771 1.47898 53.8561 3.30339 53.8561H32.7785V40.5552C32.7785 38.3901 34.5336 36.6351 36.6986 36.6351H49.9994V10.3167C49.9994 8.49226 48.5205 7.01328 46.6961 7.01328H39.5249C38.524 8.51373 36.8163 9.50431 34.8812 9.50431C33.9539 9.50431 33.079 9.27654 32.3086 8.87446L26.9323 12.4454C26.5585 12.6937 26.1139 12.2491 26.3622 11.8753L29.5915 7.01333H3.30339C1.47893 7.01328 0 8.49226 0 10.3167ZM41.5998 26.7868L39.9022 26.0513C38.6951 25.542 37.4124 24.58 37.4124 22.7693C37.4124 20.8077 39.1477 19.2988 41.562 19.2988C42.9954 19.2988 44.3913 19.9023 45.3531 20.8643L44.2403 22.2601C43.448 21.6 42.6182 21.2038 41.562 21.2038C40.3926 21.2038 39.6193 21.7508 39.6193 22.6562C39.6193 23.6182 40.5624 23.9764 41.5809 24.3914L43.2596 25.0893C44.712 25.7119 45.7494 26.636 45.7494 28.428C45.7494 30.4273 44.0896 32.0872 41.3169 32.0872C39.657 32.0872 38.0349 31.427 36.8653 30.2763L38.1479 28.7863C39.0346 29.6162 40.2229 30.1821 41.3544 30.1821C42.7503 30.1821 43.5048 29.5597 43.5048 28.5979C43.5048 27.579 42.7126 27.2584 41.5998 26.7868ZM26.7553 19.5249H30.6976C33.244 19.5249 35.1113 20.2983 35.1113 22.5617C35.1113 23.7311 34.4323 24.8629 32.9988 25.2401V25.3155C34.7718 25.6172 35.7526 26.5792 35.7526 28.2391C35.7526 30.7099 33.7344 31.8605 31.0183 31.8605H26.7555L26.7553 19.5249ZM18.8332 19.2986C22.0586 19.2986 24.2843 21.6563 24.2843 25.6362C24.2843 29.6349 22.0586 32.087 18.8332 32.087C15.6267 32.087 13.401 29.635 13.401 25.6362C13.401 21.6563 15.6268 19.2986 18.8332 19.2986ZM5.12076 28.8804C5.61114 29.7858 6.29016 30.182 7.0446 30.182C8.19517 30.182 8.77992 29.5595 8.77992 27.8054V19.5249H10.9679V27.9939C10.9679 30.2386 9.8739 32.087 7.28982 32.087C5.57338 32.087 4.38509 31.3702 3.61171 29.9933L5.12076 28.8804Z" fill="white"/>
<path d="M36.6986 38.9035C35.7864 38.9035 35.0469 39.643 35.0469 40.5552V52.7903V53.8561L50 38.9035H49.1545H36.6986Z" fill="white"/>
<path d="M32.4567 7.01327C32.903 7.36431 33.427 7.62038 33.999 7.7518C34.2827 7.81699 34.5779 7.85261 34.8813 7.85261C35.7968 7.85261 36.6382 7.53845 37.306 7.01327C38.2201 6.2944 38.8076 5.17934 38.8076 3.9263C38.8077 1.75785 37.0498 0 34.8813 0C32.7129 0 30.9551 1.75785 30.9551 3.9263C30.9551 4.22989 30.9906 4.52493 31.0559 4.8087C31.2598 5.69632 31.7641 6.4686 32.4567 7.01327Z" fill="white"/>
</svg>
