<svg width="335" height="326" viewBox="0 0 335 326" fill="none" xmlns="http://www.w3.org/2000/svg">
<path d="M18 3.2C10 6.93333 6.4 10.6667 2.8 18.6667C0.133333 24.5333 0 26.6667 0 161.867C0 262.133 0.4 300.4 1.6 304.133C3.6 311.067 11.3333 319.733 17.8667 322.8C23.0667 325.2 29.4667 325.333 137.333 325.333C264.4 325.333 257.6 325.867 263.067 316.267L265.733 311.867L260.533 306.533L255.467 301.333H141.867C40.2667 301.333 28 301.067 26.1333 299.2C24.2667 297.333 24 283.2 24 162.8C24 34.2667 24.1333 28.2667 26.4 26.2667C28.6667 24.1333 38.2667 24 136.933 24C235.867 24 245.2 24.1333 246.8 26.2667C248.267 28 248.8 41.6 249.333 96.9333L250 165.467L257.733 168.533C261.867 170.267 266.8 172.667 268.667 173.867C270.4 175.067 272.267 176 272.667 176C274 176 273.333 30.9333 271.867 24.1333C269.867 14.9333 264.4 7.73333 255.867 3.46666L248.8 -4.7607e-06H136.8H24.6667L18 3.2Z" fill="black"/>
<path d="M46.6667 87.3333V100H122.667H198.667V87.3333V74.6667H122.667H46.6667V87.3333Z" fill="black"/>
<path d="M46.6667 156.667V169.333H122.667H198.8L198.4 156.933L198 144.667L122.4 144.267L46.6667 144V156.667Z" fill="black"/>
<path d="M315.256 232.222C303.288 212.356 283.006 199.288 260 199.288C236.993 199.288 216.712 212.356 204.744 232.222C204.424 232.754 203.786 234.058 203.752 235.356C203.714 236.658 204.287 237.949 204.579 238.439C216.526 258.457 236.887 271.646 260 271.646C283.113 271.646 303.474 258.457 315.421 238.439C315.713 237.949 316.286 236.658 316.248 235.356C316.214 234.058 315.576 232.754 315.256 232.222ZM260 259.957C245.927 259.957 234.519 249.116 234.519 235.745C234.519 222.373 245.927 211.531 260 211.531C274.072 211.531 285.481 222.373 285.481 235.745C285.481 249.116 274.072 259.957 260 259.957Z" fill="black"/>
<path d="M260 219.679C257.223 219.679 254.639 220.377 252.329 221.505L258.555 234.913L244.215 230.122C243.522 231.876 243.093 233.758 243.093 235.745C243.093 244.613 250.668 251.811 260 251.811C269.333 251.811 276.908 244.613 276.908 235.745C276.908 226.877 269.333 219.679 260 219.679Z" fill="black"/>
<path d="M260 302.625C245.167 302.625 230.666 298.707 218.332 291.365C205.999 284.024 196.386 273.589 190.709 261.381C185.032 249.172 183.547 235.738 186.441 222.778C189.335 209.818 196.478 197.913 206.967 188.569C217.456 179.225 230.82 172.862 245.368 170.284C259.917 167.706 274.997 169.029 288.702 174.086C302.406 179.143 314.119 187.706 322.36 198.693C330.602 209.681 335 222.598 335 235.812C335 253.533 327.098 270.526 313.033 283.056C298.968 295.586 279.892 302.625 260 302.625ZM260 180.135C247.638 180.135 235.555 183.401 225.277 189.519C214.999 195.637 206.988 204.332 202.258 214.506C197.527 224.679 196.289 235.874 198.701 246.675C201.112 257.475 207.065 267.396 215.806 275.182C224.547 282.969 235.683 288.271 247.807 290.42C259.931 292.568 272.497 291.466 283.917 287.251C295.338 283.037 305.099 275.901 311.967 266.745C318.834 257.589 322.5 246.825 322.5 235.812C322.5 221.046 315.915 206.884 304.194 196.443C292.473 186.001 276.576 180.135 260 180.135Z" fill="black"/>
</svg>
